<?xml version="1.0" encoding="UTF-8"?>
<svg xmlns="http://www.w3.org/2000/svg" xmlns:xlink="http://www.w3.org/1999/xlink" viewBox="0 0 3710 3710">
  <defs>
    <style>
      .cls-1 {
        opacity: .85;
      }

      .cls-2 {
        fill: url(#linear-gradient-2);
      }

      .cls-3, .cls-4, .cls-5, .cls-6 {
        fill: #fff;
      }

      .cls-7 {
        fill: url(#linear-gradient-17);
      }

      .cls-8 {
        fill: url(#linear-gradient-15);
      }

      .cls-9 {
        fill: url(#linear-gradient-18);
      }

      .cls-10, .cls-5 {
        opacity: .6;
      }

      .cls-11 {
        fill: #f99175;
      }

      .cls-12 {
        fill: url(#linear-gradient-28);
      }

      .cls-13 {
        fill: url(#linear-gradient-14);
      }

      .cls-14 {
        fill: url(#linear-gradient-20);
      }

      .cls-15 {
        fill: url(#linear-gradient-6);
      }

      .cls-4 {
        opacity: .5;
      }

      .cls-16 {
        fill: url(#linear-gradient-32);
      }

      .cls-17 {
        fill: url(#linear-gradient-11);
      }

      .cls-18 {
        fill: url(#linear-gradient-10);
      }

      .cls-19 {
        fill: #91b3fa;
      }

      .cls-20 {
        fill: url(#linear-gradient-16);
      }

      .cls-21 {
        fill: url(#linear-gradient-31);
      }

      .cls-22 {
        fill: url(#linear-gradient-21);
      }

      .cls-23 {
        fill: url(#linear-gradient-25);
      }

      .cls-24 {
        fill: url(#linear-gradient-5);
      }

      .cls-25 {
        fill: url(#linear-gradient-7);
      }

      .cls-26 {
        fill: url(#linear-gradient-24);
      }

      .cls-27 {
        fill: url(#linear-gradient-9);
      }

      .cls-28 {
        fill: url(#linear-gradient-22);
      }

      .cls-29 {
        fill: url(#linear-gradient-3);
      }

      .cls-30 {
        fill: url(#linear-gradient);
      }

      .cls-6 {
        opacity: .78;
      }

      .cls-31 {
        fill: url(#linear-gradient-27);
      }

      .cls-32 {
        fill: url(#linear-gradient-33);
      }

      .cls-33 {
        fill: url(#linear-gradient-29);
      }

      .cls-34 {
        fill: #0f163a;
      }

      .cls-35 {
        fill: url(#linear-gradient-30);
      }

      .cls-36 {
        fill: #f16024;
      }

      .cls-37 {
        fill: #bdd0fb;
      }

      .cls-38 {
        fill: url(#linear-gradient-23);
      }

      .cls-39 {
        fill: url(#linear-gradient-19);
      }

      .cls-40 {
        fill: url(#linear-gradient-4);
      }

      .cls-41 {
        fill: url(#linear-gradient-8);
      }

      .cls-42 {
        fill: url(#linear-gradient-12);
      }

      .cls-43 {
        fill: url(#linear-gradient-13);
      }

      .cls-44 {
        fill: url(#linear-gradient-26);
      }
    </style>
    <linearGradient id="linear-gradient" x1="3408.29" y1="3615.25" x2="1372.54" y2="1417.93" gradientUnits="userSpaceOnUse">
      <stop offset="0" stop-color="#dae3fe"/>
      <stop offset="1" stop-color="#e9effd"/>
    </linearGradient>
    <linearGradient id="linear-gradient-2" x1="3146.39" y1="1284.92" x2="1173.5" y2="3180.3" gradientTransform="translate(-1374.87 781.41) rotate(-21.22)" gradientUnits="userSpaceOnUse">
      <stop offset="0" stop-color="#4f52ff"/>
      <stop offset="1" stop-color="#4042e2"/>
    </linearGradient>
    <linearGradient id="linear-gradient-3" x1="1452.41" y1="131.33" x2="791.89" y2="1000.23" gradientTransform="translate(312.14 145.99) rotate(1.46)" gradientUnits="userSpaceOnUse">
      <stop offset="0" stop-color="#09005d"/>
      <stop offset=".33" stop-color="#090258"/>
      <stop offset=".7" stop-color="#0c0b4a"/>
      <stop offset="1" stop-color="#0f163a"/>
    </linearGradient>
    <linearGradient id="linear-gradient-4" x1="1524.87" y1="186.41" x2="864.34" y2="1055.31" xlink:href="#linear-gradient-3"/>
    <linearGradient id="linear-gradient-5" x1="1441.64" y1="239.55" x2="985.55" y2="1077.01" gradientTransform="translate(312.14 145.99) rotate(1.46)" xlink:href="#linear-gradient-2"/>
    <linearGradient id="linear-gradient-6" x1="148.34" y1="1034.7" x2="-173.46" y2="1430.31" gradientTransform="translate(2710.02 715.42) rotate(-172.84) scale(1 -1)" gradientUnits="userSpaceOnUse">
      <stop offset="0" stop-color="#febbba"/>
      <stop offset="1" stop-color="#ff928e"/>
    </linearGradient>
    <linearGradient id="linear-gradient-7" x1="11315.81" y1="3201.24" x2="11423.2" y2="3201.24" gradientTransform="translate(-10063.17)" gradientUnits="userSpaceOnUse">
      <stop offset="0" stop-color="#09005d"/>
      <stop offset="1" stop-color="#1a0f91"/>
    </linearGradient>
    <linearGradient id="linear-gradient-8" x1="11326.7" y1="3151.33" x2="11370.26" y2="3151.33" gradientTransform="translate(-10063.17)" gradientUnits="userSpaceOnUse">
      <stop offset="0" stop-color="#a22b25"/>
      <stop offset="1" stop-color="#c0423c"/>
    </linearGradient>
    <linearGradient id="linear-gradient-9" x1="11544.2" y1="3199.52" x2="11712.7" y2="3199.52" xlink:href="#linear-gradient-7"/>
    <linearGradient id="linear-gradient-10" x1="11546.76" y1="3131.99" x2="11590.07" y2="3131.99" xlink:href="#linear-gradient-8"/>
    <linearGradient id="linear-gradient-11" x1="3137.4" y1="2132.2" x2="2661.45" y2="2299.79" gradientTransform="matrix(1,0,0,1,0,0)" xlink:href="#linear-gradient-7"/>
    <linearGradient id="linear-gradient-12" x1="1302.41" y1="2536.28" x2="1362.83" y2="2536.28" gradientTransform="matrix(1,0,0,1,0,0)" xlink:href="#linear-gradient-2"/>
    <linearGradient id="linear-gradient-13" x1="2191.26" y1="622.3" x2="2070.58" y2="923.99" gradientTransform="matrix(1,0,0,1,0,0)" xlink:href="#linear-gradient-2"/>
    <linearGradient id="linear-gradient-14" x1="11836.57" y1="1863.66" x2="11997.55" y2="1863.66" xlink:href="#linear-gradient-8"/>
    <linearGradient id="linear-gradient-15" x1="1610.26" y1="2191.91" x2="1338.73" y2="3056.76" gradientTransform="matrix(1,0,0,1,0,0)" xlink:href="#linear-gradient-2"/>
    <linearGradient id="linear-gradient-16" x1="12240.18" y1="1855.54" x2="11846.49" y2="2345.34" xlink:href="#linear-gradient-8"/>
    <linearGradient id="linear-gradient-17" x1="12229.53" y1="2012.11" x2="12004.79" y2="2291.71" xlink:href="#linear-gradient-8"/>
    <linearGradient id="linear-gradient-18" x1="11809.76" y1="1637.23" x2="11472.88" y2="2256.22" xlink:href="#linear-gradient-8"/>
    <linearGradient id="linear-gradient-19" x1="9380.53" y1="10513.48" x2="9231.65" y2="10710.44" gradientTransform="translate(-12086.6 -1428.5) rotate(-35.22)" xlink:href="#linear-gradient-8"/>
    <linearGradient id="linear-gradient-20" x1="9266.83" y1="10561" x2="9444.67" y2="10561" gradientTransform="translate(-12086.6 -1428.5) rotate(-35.22)" xlink:href="#linear-gradient-7"/>
    <linearGradient id="linear-gradient-21" x1="9162.47" y1="10669.46" x2="9281.89" y2="10546.94" gradientTransform="translate(-12086.6 -1428.5) rotate(-35.22)" xlink:href="#linear-gradient-8"/>
    <linearGradient id="linear-gradient-22" x1="-116.52" y1="480.07" x2="-199.26" y2="990.78" gradientTransform="translate(3764)" xlink:href="#linear-gradient-2"/>
    <linearGradient id="linear-gradient-23" x1="-939.64" y1="3535.09" x2="-824.04" y2="2183.98" gradientTransform="translate(3764)" xlink:href="#linear-gradient-6"/>
    <linearGradient id="linear-gradient-24" x1="-456.17" y1="425.04" x2="-538.91" y2="935.75" gradientTransform="translate(3764)" xlink:href="#linear-gradient-2"/>
    <linearGradient id="linear-gradient-25" x1="-707.1" y1="3555.19" x2="-591.47" y2="2203.72" gradientTransform="translate(3764)" xlink:href="#linear-gradient-6"/>
    <linearGradient id="linear-gradient-26" x1="3533.96" y1="1964.5" x2="2337.26" y2="3120.98" gradientTransform="matrix(1,0,0,1,0,0)" xlink:href="#linear-gradient-7"/>
    <linearGradient id="linear-gradient-27" x1="869.76" y1="661.89" x2="658.74" y2="912.64" gradientTransform="translate(2542.71 797.67) rotate(16.22)" xlink:href="#linear-gradient-7"/>
    <linearGradient id="linear-gradient-28" x1="3358.89" y1="2132.38" x2="5259.53" y2="2021.76" gradientTransform="matrix(1,0,0,1,0,0)" xlink:href="#linear-gradient-2"/>
    <linearGradient id="linear-gradient-29" x1="564.19" y1="1103.97" x2="581.38" y2="981.91" gradientTransform="translate(2542.71 797.67) rotate(16.22)" xlink:href="#linear-gradient-6"/>
    <linearGradient id="linear-gradient-30" x1="485.37" y1="842.42" x2="646.12" y2="1027.24" gradientTransform="translate(2542.71 797.67) rotate(16.22)" xlink:href="#linear-gradient-6"/>
    <linearGradient id="linear-gradient-31" x1="768.69" y1="576.83" x2="557.66" y2="827.59" gradientTransform="translate(2542.71 797.67) rotate(16.22)" xlink:href="#linear-gradient-7"/>
    <linearGradient id="linear-gradient-32" x1="525.53" y1="807.48" x2="686.28" y2="992.31" gradientTransform="translate(2542.71 797.67) rotate(16.22)" xlink:href="#linear-gradient-6"/>
    <linearGradient id="linear-gradient-33" x1="2654.04" y1="2105.4" x2="3304.85" y2="1360.96" gradientTransform="translate(5462.08 4095.71) rotate(-110.13) scale(1 -1)" xlink:href="#linear-gradient-6"/>
  </defs>
  <g id="Background">
    <rect class="cls-3" width="3710" height="3710"/>
  </g>
  <g id="Illustration">
    <g>
      <path class="cls-30" d="m3124.67,2363.05c-279.74,653.8-1018.18,934.62-1596.75,886.74-157.97-13.07-475.82-39.38-724-274.04-476.61-450.66-403.21-1392.68,53.04-1947.28,58.76-71.42,465.45-549.94,1099.22-543.53,464.01,4.69,789.69,266.77,829.29,299.42,50.03,41.25,160.37,139.26,259.81,294.75,233.66,365.36,254.2,875.39,79.39,1283.95Z"/>
      <path class="cls-37" d="m2326.38,1060.49c43.86-64.38,283.82-11.45,348.52-163.58l-70.83-150.9s-132.86,160.5-223.7,177.46c-90.85,16.96-80.73-41.95-35.29-75.19,45.44-33.23,203.72-70.14,223-136.87,0,0,14.88-52.96-56.37-58.51-71.25-5.54-125.4-118.48-123.19-173.14,0,0-21.67,23.71-95.92,54.22-74.26,30.51-151.18,55.9-128.95,124.9,22.22,69,85.07,144.76,52.73,175.53-32.34,30.77-175.53-83.26-121.3-216.92,0,0-121.8,39.52-140.23,75.01-18.43,35.49,1.78,111.78,95.08,169.35,93.3,57.57,118.79,111.88,94.53,134.96-24.25,23.08-269.77-184.38-218.37-290.82,0,0-179.75,156.94-189.72,185.54-9.97,28.6,90.4,126.15,173.12,161.19,82.72,35.04,120.91,116.4,113.38,150.21-7.52,33.81-74.68-59.43-124.62-82.77-49.94-23.34-197.16-195.79-197.16-195.79,0,0,6.89,31.3-45.88,93.3-52.77,62-103.43,194.94-59.88,221.28,43.55,26.34,273.9,110.11,332.48,160.16,58.58,50.05,94.98,102.7,50.18,98.61-44.8-4.09-121.4-67.6-189.73-96.91-68.33-29.31-253.3-82.84-261.52-133.57,0,0-94.63,197.08,40.34,351.74,0,0,106.35,27.25,205.09-3.25,98.74-30.5,141.58-38.91,162.96-9.96,21.38,28.95-47.01,49.35-109.01,66.76-62,17.41-205.37,60.81-245.64,33.17,0,0,216.74,220.91,390.47,100.98,162.92-112.47,165.07-143.77,164.71-147.22,2.26,12.75,74.03,397.77,452.95,175.74,0,0-100.63,26.48-145.24-27.04-44.62-53.52-162.79-89.34-129.19-125.74,33.6-36.4,195.19,158.38,295.22,122.31,100.03-36.07,168.4-183.33,116.55-288.54,0,0-66.36,71.53-172.16,53.77s-243.58-70.44-167.58-107.86c76-37.43,340.95,58.89,397.82,15.43,56.86-43.46-4.58-287.52-4.58-287.52,0,0-28.04,24.86-146.66,68.83-118.62,43.98-262.56,69.54-250.86,36.32,11.7-33.23,106.83-43.29,191.52-55.5,84.69-12.21,178.87-71.11,174.68-116.38-4.19-45.26-51.26-179.52-51.26-179.52,0,0-140.61,86.48-200.44,131.81-59.84,45.34-213.92,49.3-170.06-15.08Zm-86.39,480.07c-102.65,5.19-41.72-56.71,8.44-89.62,38.08-24.99,94.21,84.44-8.44,89.62Zm30.13-192.92c-67.83,4.99-87.67-24.11-58.83-48.54,66.26-56.12,126.66,43.55,58.83,48.54Zm7.96-207.32c-36.61,5.08-51.87-2.53-34.76-40.84,17.11-38.31,71.37,35.77,34.76,40.84Z"/>
      <g>
        <path class="cls-19" d="m1500.79,3168.43s647.02-1487.76,1561.92-2198.55c61.5-47.78,151.51-8.96,158.48,68.61,46.61,518.68,37.14,2064.91-1720.4,2129.94Z"/>
        <path class="cls-4" d="m1667.31,3098.65c-4.3,2.92-.47,9.44,4.18,7.12,171.43-85.33,855.35-533.02,1268.94-1595.63,1.33-3.41-3.63-5.7-5.25-2.41-119.24,242.12-588.36,1129.62-1267.86,1590.92Z"/>
      </g>
      <g class="cls-1">
        <path class="cls-37" d="m1505.34,2268.17s-49.52-1087.13-452.81-1751.46c-27.11-44.66-92.8-41.86-115.73,5.08-153.3,313.89-517.3,1285.13,568.53,1746.38Z"/>
        <path class="cls-4" d="m1414.39,2181.46c2.07,2.96-2.04,6.25-4.48,3.59-90.29-98.04-423.87-558.95-429.01-1352.59-.02-2.55,3.78-2.8,4.01-.26,17.43,187.04,102.15,880.61,429.48,1349.26Z"/>
      </g>
      <g>
        <path class="cls-19" d="m1350.42,2366.09s-149.55-1134.74-631.82-1794.64c-32.42-44.36-101-35.53-120.81,15.72-132.45,342.69-426.63,1393.14,752.64,1778.92Z"/>
        <path class="cls-4" d="m1247.32,2283.4c2.44,2.92-1.57,6.74-4.38,4.17-103.42-94.63-494.38-547.63-571.06-1378.82-.25-2.67,3.7-3.27,4.18-.64,35.07,194.43,186.15,913.59,571.25,1375.28Z"/>
      </g>
      <g>
        <path class="cls-34" d="m607.96,952.24c2.38-93.23,79.88-166.89,173.12-164.51l1435.59,36.6c79.2,2.02,142.92,65.75,144.94,144.95l52.91,2084.03c1.57,61.98-48.48,112.95-110.48,112.49l-1646.12-12.04c-58.25-.43-104.83-48.55-103.34-106.79l53.4-2094.73Z"/>
        <path class="cls-37" d="m899.27,3124.78s-.03,0-.05,0l-184.05-7.07c-61.69-2.37-110.59-54.51-109.02-116.22l7.09-277.96c.06-2.32,1.99-4.15,4.31-4.09h0c2.32.06,4.15,1.99,4.09,4.31l-7.09,277.96c-1.46,57.14,43.83,105.41,100.94,107.61l184.05,7.07c2.32.09,4.13,2.04,4.04,4.36-.09,2.3-2.01,4.1-4.31,4.04Z"/>
        <path class="cls-37" d="m619.52,2641.72c-2.32-.06-4.15-1.99-4.09-4.31l1.15-45.01c.06-2.32,1.99-4.15,4.31-4.09h0c2.32.06,4.15,1.99,4.09,4.31l-1.15,45.01c-.06,2.32-1.99,4.15-4.31,4.09h0Z"/>
        <g>
          <path class="cls-2" d="m729.06,818.46c.59-29.83,27.41-52.25,56.86-47.49,195.36,31.58,867.41,130.99,1425.87,102.41,25.47-1.3,47.04,18.52,47.74,44.01l57.82,2093.44c.79,28.7-21.72,52.66-50.42,53.62-234.77,7.9-1201.55,36.91-1544.98-7.93-20.9-2.73-36.36-20.78-35.95-41.85l43.06-2196.21Z"/>
          <path class="cls-37" d="m750.81,871.44c.56-28.71,26.37-50.28,54.72-45.7,188.01,30.39,834.74,126.06,1372.17,98.56,24.51-1.25,45.26,17.82,45.94,42.35l55.64,2014.61c.76,27.62-20.9,50.68-48.52,51.61-225.93,7.6-1156.31,35.52-1486.8-7.63-20.11-2.63-34.99-20-34.59-40.28l41.44-2113.51Z"/>
          <path class="cls-6" d="m921.5,1031.01l9.04,431.84c.3,14.36,11.6,26.06,25.94,26.84,79.83,4.29,328.59,16.71,469.32,12.96,15.92-.42,28.82-12.96,29.76-28.86,4.74-80.82,16.61-316.11.68-415-2.57-15.97-15.94-27.97-32.09-28.95l-471.74-28.55c-17.01-1.03-31.28,12.68-30.92,29.72Z"/>
          <circle class="cls-19" cx="1189.26" cy="1192.14" r="92.75" transform="translate(-494.64 1190.11) rotate(-45)"/>
          <path class="cls-19" d="m1041.48,1460.78l295.4,7.53c18.11.46,29.47-19.26,20.11-34.77-24.09-39.9-75.12-98.92-166.1-98.63-87.69.27-140.96,51.05-168.02,87.75-11.49,15.58-.74,37.63,18.61,38.12Z"/>
          <g class="cls-10">
            <path class="cls-3" d="m2105.24,1098.75c7.37.19,13.38-5.69,13.35-13.07v-2.15c-.04-7.37-6.09-13.67-13.45-13.99l-524.36-22.72c-7.37-.32-11.54,5.16-9.26,12.17l4.4,13.6c2.27,7.02,10.16,12.91,17.53,13.1l511.78,13.05Z"/>
          </g>
          <g class="cls-10">
            <path class="cls-3" d="m1578.73,1127.24c-7.37-.32-11.54,5.16-9.26,12.17l4.4,13.6c2.27,7.02,10.16,12.91,17.53,13.1l511.78,13.05c7.37.19,13.38-5.69,13.35-13.07v-2.15c-.04-7.37-6.09-13.67-13.45-13.99l-524.36-22.72Z"/>
          </g>
          <g class="cls-10">
            <path class="cls-3" d="m1576.65,1208.82c-7.37-.32-11.54,5.16-9.26,12.17l4.4,13.6c2.27,7.02,10.16,12.91,17.53,13.1l511.78,13.05c7.37.19,13.38-5.69,13.35-13.07v-2.15c-.04-7.37-6.09-13.67-13.45-13.99l-524.36-22.72Z"/>
          </g>
          <g class="cls-10">
            <path class="cls-3" d="m2141.37,1655.44c7.37.19,13.16-5.69,12.86-13.05l-.09-2.2c-.3-7.37-6.57-13.6-13.94-13.84l-1219.56-40.71c-7.37-.25-9.76,4.37-5.32,10.25l13.72,18.16c4.44,5.88,14.11,10.85,21.48,11.04l1190.85,30.36Z"/>
          </g>
          <g class="cls-10">
            <path class="cls-3" d="m918.59,1666.04c-7.37-.25-9.76,4.37-5.32,10.25l13.72,18.16c4.44,5.88,14.11,10.85,21.48,11.04l1190.85,30.36c7.37.19,13.16-5.69,12.86-13.05l-.09-2.2c-.3-7.37-6.57-13.6-13.94-13.84l-1219.56-40.71Z"/>
          </g>
          <g>
            <path class="cls-3" d="m1072.59,1981.03c-.08,0-.17,0-.25,0l-102.35-3.59c-14.76-.52-26.69-10.99-27.75-24.37l-6.81-86.12c-.4-5.13,1.31-10.15,4.83-14.13,3.94-4.45,9.79-7.15,16.05-7.42h0c8.64-.37,20.81-1.1,33.7-1.86,28.55-1.7,60.91-3.63,79.89-3.38,13.75.2,25.45,8.81,28.41,20.99,4.84,19.9,3.42,57.23,1.39,96.98-.67,13.06-12.8,23.29-27.12,22.91Zm-115.91-127.24c-4,.17-7.69,1.85-10.12,4.59-2,2.26-2.97,5.06-2.75,7.89l6.81,86.12c.72,9.11,9.17,16.26,19.66,16.63l102.35,3.59c.06,0,.12,0,.18,0,9.78.26,18.06-6.41,18.5-14.94,2-39.1,3.41-75.76-1.16-94.57-2-8.23-10.4-14.31-20.04-14.56-.1,0-.21,0-.32,0-18.67-.24-52.28,1.76-79.28,3.37-12.93.77-25.13,1.5-33.84,1.87h0Z"/>
            <g class="cls-10">
              <path class="cls-3" d="m1169.76,1894.13c-7.37-.21-12.01,5.49-10.31,12.67l6.01,25.41c1.7,7.18,9.12,13.14,16.49,13.25l935.54,14.06c7.37.11,13.43-5.83,13.45-13.21l.04-11.4c.03-7.37-5.98-13.58-13.35-13.79l-947.87-26.99Z"/>
            </g>
            <path class="cls-36" d="m971.46,1876.24h0c7.71-4.27,17.43-1.36,21.52,6.45l19.27,36.71c1.93,3.67,7.22,3.58,9.02-.16l52.93-110.22c2.64-5.5,10.88-3.41,10.63,2.69-1.38,34.09-12.08,98.69-67.96,151.57,0,0-29.73-12.44-52.56-66.16-3.3-7.76-.22-16.79,7.16-20.87Z"/>
            <path class="cls-3" d="m1066.99,2200.44c-.08,0-.17,0-.25,0l-102.35-3.59c-14.76-.52-26.69-10.99-27.75-24.37l-6.81-86.12c-.4-5.13,1.31-10.15,4.83-14.13,3.94-4.45,9.79-7.15,16.05-7.42h0c8.64-.37,20.81-1.1,33.7-1.86,28.55-1.7,60.91-3.63,79.88-3.38,13.73.22,25.45,8.81,28.41,20.99,4.84,19.91,3.42,57.23,1.39,96.98-.67,13.06-12.8,23.29-27.12,22.91Zm-115.92-127.24c-4,.17-7.69,1.85-10.12,4.59-2,2.26-2.97,5.06-2.75,7.89l6.81,86.12c.72,9.11,9.17,16.27,19.66,16.63l102.35,3.59c.06,0,.12,0,.18,0,9.78.26,18.06-6.41,18.5-14.94,2-39.1,3.41-75.76-1.16-94.57-2-8.22-10.4-14.31-20.04-14.56-.1,0-.21,0-.32,0-18.67-.24-52.27,1.76-79.27,3.37-12.92.77-25.13,1.5-33.84,1.87h0Z"/>
            <path class="cls-5" d="m961.85,2082.07c21.54-.92,68.41-4.48,90.58-4.19,9.4.12,17.49,6.01,19.49,14.21,3.88,15.93,2.5,47.45,1.02,76.53-.44,8.71-8.63,15.46-18.4,15.12l-81.79-2.87c-10.06-.35-18.24-7.43-18.94-16.38l-5.44-68.82c-.56-7.12,5.5-13.26,13.49-13.6Z"/>
            <g class="cls-10">
              <path class="cls-3" d="m1164.16,2113.54c-7.37-.21-12.01,5.49-10.31,12.67l6.01,25.41c1.7,7.18,9.12,13.14,16.49,13.25l935.54,14.06c7.37.11,13.43-5.83,13.45-13.21l.04-11.4c.03-7.37-5.98-13.58-13.35-13.79l-947.87-26.99Z"/>
            </g>
            <path class="cls-3" d="m1061.4,2419.85c-.08,0-.17,0-.25,0l-102.35-3.59c-14.76-.52-26.69-10.99-27.75-24.37l-6.81-86.13c-.4-5.13,1.31-10.15,4.84-14.13,3.94-4.45,9.79-7.15,16.05-7.42h0c8.63-.37,20.78-1.09,33.64-1.86,27.16-1.62,60.96-3.63,79.95-3.38,13.74.11,25.45,8.81,28.41,20.99,4.84,19.89,3.42,57.22,1.39,96.98-.67,13.06-12.8,23.29-27.12,22.92Zm-2.48-132.47c-.1,0-.21,0-.32,0-18.68-.24-52.31,1.76-79.34,3.37-12.9.77-25.09,1.49-33.78,1.87h0c-4,.17-7.68,1.84-10.12,4.59-2,2.25-2.97,5.06-2.75,7.89l6.81,86.13c.72,9.11,9.17,16.26,19.66,16.63l102.35,3.59c.06,0,.12,0,.18,0,9.78.26,18.06-6.41,18.5-14.94,1.99-39.11,3.41-75.77-1.16-94.57-2-8.23-10.4-14.31-20.04-14.56Z"/>
            <path class="cls-5" d="m956.26,2301.49c21.54-.92,68.41-4.48,90.58-4.19,9.4.12,17.49,6.01,19.49,14.21,3.88,15.93,2.5,47.45,1.02,76.53-.44,8.71-8.63,15.46-18.4,15.12l-81.79-2.87c-10.06-.35-18.24-7.43-18.94-16.38l-5.44-68.82c-.56-7.12,5.5-13.26,13.49-13.6Z"/>
            <g class="cls-10">
              <path class="cls-3" d="m1158.57,2332.95c-7.37-.21-12.01,5.49-10.31,12.67l6.01,25.41c1.7,7.18,9.12,13.14,16.49,13.25l935.54,14.06c7.37.11,13.43-5.83,13.45-13.21l.04-11.4c.03-7.37-5.98-13.58-13.35-13.79l-947.87-26.99Z"/>
            </g>
            <path class="cls-3" d="m1055.81,2639.27c-.08,0-.17,0-.25,0l-102.35-3.59c-14.76-.52-26.69-11-27.75-24.37l-6.81-86.13c-.4-5.13,1.31-10.15,4.84-14.13,3.94-4.45,9.79-7.15,16.05-7.42,8.62-.37,20.77-1.09,33.63-1.86,27.16-1.62,60.96-3.63,79.95-3.38,13.65.18,25.45,8.81,28.41,20.99,4.84,19.89,3.42,57.22,1.39,96.98-.67,13.06-12.8,23.29-27.12,22.92Zm-2.48-132.47c-.11,0-.21,0-.32,0-18.69-.24-52.32,1.76-79.34,3.37-12.9.77-25.08,1.49-33.77,1.87h0c-4,.17-7.68,1.84-10.12,4.59-2,2.26-2.97,5.06-2.75,7.89l6.81,86.13c.72,9.11,9.17,16.26,19.66,16.63l102.35,3.59c.06,0,.12,0,.18,0,9.78.26,18.06-6.41,18.5-14.94,1.99-39.11,3.41-75.78-1.16-94.57-2-8.23-10.4-14.31-20.04-14.56Z"/>
            <path class="cls-5" d="m950.67,2520.9c21.54-.92,68.41-4.48,90.58-4.19,9.4.12,17.49,6.01,19.49,14.21,3.88,15.93,2.5,47.45,1.02,76.53-.44,8.71-8.63,15.46-18.4,15.12l-81.79-2.87c-10.06-.35-18.24-7.43-18.94-16.38l-5.44-68.82c-.56-7.12,5.5-13.26,13.49-13.6Z"/>
            <g class="cls-10">
              <path class="cls-3" d="m1152.98,2552.37c-7.37-.21-12.01,5.49-10.31,12.67l6.01,25.41c1.7,7.18,9.12,13.14,16.49,13.25l935.54,14.06c7.37.11,13.43-5.83,13.45-13.21l.04-11.4c.03-7.37-5.98-13.58-13.35-13.79l-947.87-26.99Z"/>
            </g>
          </g>
        </g>
        <path class="cls-29" d="m1595.14,524.52c-50.94-37.4-96.04-37.83-128.02-29.27-29.17,7.81-48.65,35.28-46.66,65.41l9.88,149.76,162.52,18.61s102.18-131.16,2.29-204.5Zm-74.7,118.71c-22.43-.57-40.15-19.22-39.58-41.65.57-22.43,19.22-40.15,41.65-39.58,22.43.57,40.15,19.22,39.58,41.65-.57,22.43-19.22,40.15-41.65,39.58Z"/>
        <path class="cls-37" d="m1448.19,648.25c-2.15-.06-3.93-1.74-4.08-3.92l-1.57-23.85c-.15-2.32,1.6-4.32,3.92-4.47,2.32-.16,4.32,1.6,4.47,3.92l1.57,23.85c.15,2.32-1.6,4.32-3.92,4.47-.13,0-.26.01-.39,0Zm-3.08-46.74c-2.15-.06-3.93-1.74-4.08-3.92l-1.2-18.11c-1.9-28.84,16.88-55.16,44.66-62.59,19.63-5.25,39.72-5.56,59.72-.93,2.26.52,3.67,2.78,3.15,5.04-.52,2.26-2.8,3.66-5.04,3.15-18.66-4.32-37.38-4.03-55.66.86-23.92,6.4-40.09,29.07-38.45,53.92l1.2,18.11c.15,2.32-1.6,4.32-3.92,4.47-.13,0-.26.01-.39,0Z"/>
        <path class="cls-40" d="m1205.56,801.3l1.91-75.12c.66-25.93,22.68-46.15,48.58-44.6l517.45,30.95c22.96,1.37,41.11,19.99,41.91,42.98l2.49,72.29-612.33-26.5Z"/>
        <path class="cls-37" d="m1378.75,713.31c-2.32-.06-4.15-1.99-4.09-4.31.06-2.32,1.99-4.15,4.31-4.09l22.27.57h0c2.32.06,4.15,1.99,4.09,4.31-.06,2.32-1.99,4.15-4.31,4.09l-22.27-.57h0Z"/>
        <path class="cls-37" d="m1234.18,778.7c-2.32-.06-4.15-1.99-4.09-4.31l.77-30.38c.6-23.63,20.32-42.36,43.94-41.76l81.88,2.09h0c2.32.06,4.15,1.99,4.09,4.31-.06,2.32-1.99,4.15-4.31,4.09l-81.88-2.09c-18.99-.48-34.84,14.58-35.33,33.57l-.78,30.38c-.06,2.32-1.99,4.15-4.31,4.09h0Z"/>
        <path class="cls-24" d="m1043.98,769.67l905.65,23.06c32.56.83,59.81,24.97,64.54,57.2l.65,4.45c5.19,35.3-22.69,66.76-58.36,65.85l-929.14-23.69c-21.35-.54-37.9-18.83-36.33-40.12l3.06-41.53c1.91-25.98,23.89-45.88,49.93-45.22Z"/>
      </g>
      <g>
        <path class="cls-15" d="m2464.47,1835.56c2.1-4,8.02-3.37,9.23.98,4.48,16.12,15.32,44.25,38.06,54.24,1.15.5,2.23,1.01,3.28,1.52,1.03-3.09,1.05-6.68-1.42-10.46-7.07-10.81,5.69-25.57,5.69-25.57,0,0,.84,13,10.73,21.19,8.51,7.05,12.6,22.74,6.78,35.61-12.31,47.82-30.75,111.06,41.06,157.26,71.81,46.2,172.93-87.2,172.93-87.2l-50.19,159.11s-77.47,57.17-167.58-23.22c-90.11-80.39-30.38-197.36-30.38-197.36,0,0-68.73-27.73-38.19-86.11Z"/>
        <g>
          <g>
            <path class="cls-25" d="m1267.59,3163.39s-11.93,18.81-14.94,71.48c-.28,4.91,3.61,9.09,8.52,9.09h93.33c3.76,0,6.44-3.68,5.23-7.24-5.47-16.19-22.01-55.65-58.9-78.21l-33.25,4.88Z"/>
            <path class="cls-41" d="m1263.53,3127.71l5.28,44.26c.46,3.82,3.45,6.88,7.27,7.32,5.1.59,12.52,1,19.74-.19,6.55-1.08,11.27-6.92,11.27-13.56v-42.74l-43.55,4.91Z"/>
            <path class="cls-27" d="m1498.51,3158.51s-17.86,27.77-17.48,65.88c.09,8.98,7.61,16.13,16.58,16.13h144.96c6.79,0,9.54-8.72,3.99-12.62-27.43-19.26-81.34-55.25-120.34-69.39h-27.71Z"/>
            <path class="cls-18" d="m1483.58,3110.71l11.26,54.67c1.26,6.11,7.24,10.23,13.33,8.87,3.7-.83,8.07-2.41,12.74-5.33,4.44-2.77,6.69-8.05,5.78-13.21l-11.65-66.23-31.47,21.23Z"/>
            <path class="cls-17" d="m1284.21,2350.64s-39.15,34.52-46.52,76.04c-7.37,41.53,20.88,716.49,20.88,716.49,0,0,39.15,6.51,59.33-5.72,0,0,23.94-438.05,42.13-539.27,0,0,95.42,453.76,121.85,535.75,0,0,37.72,4.59,49.88-2.59,0,0-24.99-588.2-56.4-692.77l-191.15-87.94Z"/>
            <path class="cls-42" d="m1358.9,2583.63c.33,0,.66-.04.99-.13,2.1-.55,3.35-2.69,2.81-4.8l-16.63-63.79c-.25-.95-.85-1.78-1.68-2.31l-35.93-23.05c-1.8-1.17-4.24-.65-5.43,1.19-1.17,1.83-.64,4.26,1.19,5.43l34.64,22.22,16.24,62.3c.45,1.76,2.05,2.94,3.8,2.94Z"/>
            <path class="cls-43" d="m1670.57,1960.63c-164.81-13.68-207.89,20.42-207.89,20.42l79.2,125.04s161.94-3.2,277.98-92.64c-21.72-23.39-36.8-49.24-46.47-69.36-29.92,12.43-64.38,19.73-102.83,16.53Z"/>
            <path class="cls-13" d="m1928.66,1718.71c-.22-5.28-7.38-6.72-9.62-1.93l-21.03,44.88c-4.06,8.67-5.37,18.38-3.73,27.82l7.38,26.12c2.21,12.74-1.12,25.79-9.2,35.88-19.32,24.16-60.48,68.28-119.07,92.62,9.67,20.13,24.76,45.97,46.47,69.36,42.58-32.82,78.98-77.23,98.93-137.37,9.56-2.94,15.94-11.93,15.56-21.92l-5.7-135.45Z"/>
            <path class="cls-8" d="m1724.82,2033.12c-58.02-62.52-168.54-90.77-232.52-102.37-28.03-5.08-55.66,10.52-65.6,37.22-28.79,77.4-107.11,278.78-122.29,313.39-12.45,28.39-25.46,56.13-33.72,73.46-4.94,10.36-.62,22.75,9.71,27.73,53.83,25.95,150.7,55.31,189.97,66.76,8.64,2.52,17.24-3.97,17.24-12.96,0-7.63,2.07-15.12,6-21.66l148.73-247.85c92.7,102.79,173.88,112.19,236.25,89.69-10.49-32.41-17.35-64.88-20.64-97.41-92.13-15.78-133.14-126.01-133.14-126.01Z"/>
            <path class="cls-20" d="m2036.18,2123.7l-30.12-17.61c-53.83,36.97-111.27,59.35-148.1,53.04,3.29,32.53,10.15,65,20.64,97.41,82.16-29.64,157.58-132.84,157.58-132.84Z"/>
            <path class="cls-7" d="m2179.22,2130.04c-18.73-10.19-74.31-18.96-74.31-18.96,0,0-63.89-37.38-82.28-44.73-15.27-6.11-21.85,16.73-23.64,24.65-.37,1.62-.53,2.61-.53,2.61l2.36,15.19,64.54,28.68c13.81,6.14,29.06,8.35,44.05,6.39l68.91-9.02c1.11-.15,1.99-.99,2.2-2.08.2-1.1-.32-2.2-1.3-2.73Z"/>
            <path class="cls-9" d="m1580.31,1815.94l-49.42,120.6s56.79,39.31,102.47,35.56l24.67-108.44-77.72-47.72Z"/>
            <g>
              <path class="cls-39" d="m1663.79,1733.72c1.13,1.6,35.75,126.68,35.75,126.68l-71.84,18.25-50.43-113.67s67.56-58.11,86.51-31.26Z"/>
              <path class="cls-14" d="m1604.33,1782.25l21.86,61.92c.28.79.66,1.53,1.14,2.22,2.97,4.22,14.24,17.97,27.6,5.58,12.13-11.24,23.37-21.32,33.74-23.15,4.66-.82,9.17,2.02,10.43,6.58,3.14,11.36,9.75,37.11,12.08,60.35.47,4.72-2.78,8.98-7.44,9.86-14.03,2.66-43.78,7.46-68.62,5.71-3.37-.24-6.33-2.26-7.73-5.32-6.84-14.96-27.81-60.33-35.61-72.08-7.32-11.02-25.27-10.71-32.79-10.04-2.47.22-4.89-.58-6.76-2.21-6.58-5.77-19.12-20.51-1.49-38.15,3.69-3.69,3.59-9.65-.21-13.22-7.57-7.12-15.67-19.74-3.05-35.4,12.82-15.91,29.74-13.38,40.11-9.6,4.19,1.53,8.77-.24,11.04-4.08,1.3-2.18,3.56-3.84,7.48-3.5,5.29.45,9.73-3.96,9.64-9.26-.18-10.19,3.47-23.08,21.15-28.58,31.38-9.77,50.95,20.55,52.89,43.17,1.94,22.62-32.69,31.28-53.05,29.75-15.48-1.16-26.97,14.18-31.6,21.61-1.46,2.35-1.76,5.23-.83,7.85Z"/>
              <path class="cls-22" d="m1599.98,1856.38s-5.07-39.27-21.41-41.2c-16.34-1.92-32.24,11.5-16,33.55,20.2,27.42,37.4,7.65,37.4,7.65Z"/>
            </g>
          </g>
          <g>
            <circle class="cls-11" cx="2291.63" cy="1754.9" r="423.5" transform="translate(-569.7 2134.43) rotate(-45)"/>
            <circle class="cls-36" cx="2291.63" cy="1754.9" r="409.41" transform="translate(-569.7 2134.43) rotate(-45)"/>
            <path class="cls-11" d="m1949.19,1602.93c-1.16.04-2.34-.19-3.46-.71-3.83-1.79-5.48-6.34-3.69-10.16,61.97-132.78,191.39-218.05,337.74-222.55,23.35-.72,46.81.67,69.71,4.12,4.18.63,7.05,4.52,6.42,8.7-.63,4.17-4.49,7.07-8.7,6.41-22-3.31-44.53-4.64-66.97-3.95-140.55,4.32-264.84,86.22-324.36,213.73-1.26,2.71-3.9,4.32-6.7,4.41Z"/>
            <circle class="cls-6" cx="2300.82" cy="1763.55" r="346.52" transform="translate(-573.12 2143.46) rotate(-45)"/>
            <path class="cls-36" d="m2274.75,2022.08l-1.16-37.68c-39.33-.37-78.47-8.44-106.44-19.67-9.99-4.01-15.35-14.92-12.84-25.38l8.49-35.39c3.12-12.98,16.91-20.07,29.38-15.29,27.73,10.63,61.81,18.67,98.25,17.55,37.84-1.16,65.66-14.86,64.85-41.15-.73-23.73-22.97-37.16-75.98-49.65-75.66-18.21-130.53-49.26-132.57-115.32-1.83-59.64,40.38-106.51,115.67-121.02l-1.16-37.69c-.37-12.13,9.16-22.26,21.28-22.63l22.14-.68c12.13-.37,22.26,9.15,22.63,21.28l1.04,33.84c36.39.34,63.04,5.74,84.27,12.47,10.87,3.45,17.11,14.86,14.46,25.95l-7.81,32.73c-3.01,12.62-16.18,19.89-28.45,15.68-19.56-6.72-47.12-13.49-82.65-12.4-44.89,1.38-57.14,20.37-56.63,37.04.63,20.52,28,33.8,86.91,49.96,84.14,22.45,119.83,56.01,121.74,118.21,1.75,57.07-38.99,109.68-120.68,125.03l1.3,42.17c.37,12.13-9.16,22.26-21.28,22.63l-22.14.68c-12.13.37-22.26-9.15-22.63-21.28Z"/>
          </g>
        </g>
        <g>
          <g>
            <path class="cls-28" d="m3163.89,3199.04l4.57,37.56c.87,7.13,6.48,12.76,13.61,13.58,12.04,1.38,31.36,2.79,50.27.79,8.3-.88,13.69-9.28,11.16-17.23-4.61-14.5-13.04-36.27-25.2-49.08h-41.67c-7.7,0-13.67,6.74-12.74,14.39Z"/>
            <path class="cls-38" d="m2837.53,2759.02l-7.03,41.37s23.55,238.56,27.74,333.99c.66,14.96-3.21,29.75-11.07,42.5l-40.95,66.5,104.08-61.42,2.07-12.7-17.04-23.43,22.32-267.25c1.31-15.7-1.93-31.44-9.33-45.35l-21.53-40.44-49.26-33.77Z"/>
            <path class="cls-26" d="m2799.37,3253.01h33.21c6.22,0,12.08-2.85,15.87-7.78,10.35-13.45,31.81-39.7,42.07-40.39,13.81-.92,12.04,48.17,12.04,48.17h7.74l9.8-61c2.47-15.35-5.17-30.55-18.95-37.75h0s-3.16,23.34-20.27,33.67c-17.12,10.33-69.65,47.31-69.65,47.31,0,0-6.43-.92-13.5.36-10.48,1.89-9.02,17.41,1.63,17.41Z"/>
            <path class="cls-23" d="m2980.09,2778.67s137.98,261.72,159.91,321.48c21.93,59.76,29.62,109.61,29.91,114.33.46,7.38,9.63,14.45,34.92,14.45,13.05,0,19.44-5.23,22.57-10.3,2.67-4.32,2.81-9.73.56-14.28-7.98-16.15-33.31-67.77-42.69-91.18-11.2-27.95-35.29-154.63-48.5-198.67-13.21-44.04-28.15-91.82-85.68-135.83,0,0-39.5-38.69-71,0Z"/>
            <path class="cls-44" d="m2971.84,2424.48c-14.48-43.64-79.68-91.52-79.68-91.52-65.7,39.46-128.19,20.24-128.19,20.24,0,0-7.66,58.31,1.31,104.46,8.97,46.15,65.22,342.73,65.22,342.73,88.64,17.96,224.97-18.07,224.97-18.07-56.46-100.24-69.14-314.2-83.63-357.84Z"/>
          </g>
          <path class="cls-31" d="m2773.09,1741.87s-20.8-93.32,86.09-68.61c0,0,51.89-8.48,54.53,40.5,0,0,33.45,22.04,8.96,64.42,0,0,99.4-38.39,142.71,48.73,43.31,87.13,3.5,135.07-38.23,147.55,0,0,33.81,16.98,17.81,55.31-16,38.33-97.06,65.35-144.93,18.74,0,0-136.23,18-133.51-78.23,0,0-63.36-40.92,3.19-120.44,66.55-79.53,3.4-107.96,3.4-107.96Z"/>
          <path class="cls-12" d="m2767.17,1958.19c10.63-3.19,31.4-7.74,56.9-4.81,59.76,6.88,99.29,65.56,85.69,124.15-17.85,76.92-39.32,201.24-9.59,261.74,0,0-65.14,71.81-136.21,13.93,0,0-31.89-138.97-73.65-199.97-28.82-42.1,45.91-158.06,64.88-186.16,2.86-4.24,7.07-7.41,11.97-8.88Z"/>
          <path class="cls-33" d="m2826.53,1841.31s31.77,89.86,34.16,129.5c0,0-35.11,15.97-68.19-10.98,0,0-3.47-89.75-8.49-105.82l42.52-12.69Z"/>
          <path class="cls-35" d="m2782.4,1718.79s-83.09,116.28-33.42,150.05c49.67,33.78,108.82-48.86,108.82-48.86,0,0,19.28-63.64-.88-85.23-20.16-21.59-74.52-15.96-74.52-15.96Z"/>
          <path class="cls-21" d="m2820.86,1691s-38.17,9.04-43.52,26.32c-5.35,17.27,54.13,33.29,70.8,34.07l13.43,69.69s39.7-65.56,23.97-103.43c-15.72-37.86-64.68-26.65-64.68-26.65Z"/>
          <path class="cls-16" d="m2841.69,1811.43s32.34-37.45,45.2-13.04c12.86,24.42-29.11,42.75-43.64,30.76l-1.56-17.72Z"/>
          <path class="cls-32" d="m2876.82,2098.29s-31.1,104.52-121.97,179.75c-90.87,75.22-221.75-63.91-221.75-63.91,0,0,5.62-39.88-41.46-65.55-25.89-14.12,72.67-10.95,87.54,18.19,14.87,29.14-15.07,27.53,24.78,59.05,38.89,30.76,126.11,25.81,158.37-121.1,1.81-8.24,12.64-53.55,18.19-59.92,39.72-45.56,98.68,6.57,96.29,53.5Z"/>
        </g>
      </g>
      <g>
        <path class="cls-3" d="m3063.26,1370.21c-18.43,60.45-53.7,82.96-82.62,74.15-29.57-9.01-44.2-47.23-27.72-102.47,16.54-54.27,50.5-82.97,83-73.07,33.47,10.2,43.07,49.77,27.34,101.39Zm-118.69,194.79l212.88-259.14,22.75,6.93-212.88,259.14-22.74-6.93Zm39.43-215.57c-10.41,32.99-9.03,59.93,6.89,64.78,15.93,4.86,30.71-15.71,41.34-50.56,9.68-31.77,10.99-59.34-6.24-64.59-16.25-4.95-32.17,18.16-41.99,50.37Zm188.52,184.28c-18.29,60-53.37,83.06-82.62,74.14-29.24-8.91-44.2-47.23-27.25-102.82,16.41-53.82,50.5-82.97,82.67-73.16,33.47,10.2,42.94,50.22,27.2,101.84Zm-79.25-20.79c-10.28,32.55-9.04,59.93,6.89,64.78,16.25,4.95,30.72-15.71,41.34-50.56,9.82-32.21,10.98-59.34-6.24-64.59-16.25-4.95-32.17,18.16-41.99,50.37Z"/>
        <path class="cls-3" d="m2896.31,1412.82v32.76h30.6v18.36h-30.6v32.92h-20.84v-32.92h-30.44v-18.36h30.44v-32.76h20.84Z"/>
      </g>
    </g>
  </g>
</svg>