<?xml version="1.0" encoding="UTF-8"?>
<svg xmlns="http://www.w3.org/2000/svg" xmlns:xlink="http://www.w3.org/1999/xlink" viewBox="0 0 3710 3710">
  <defs>
    <style>
      .cls-1 {
        fill: url(#linear-gradient-2);
      }

      .cls-2, .cls-3, .cls-4, .cls-5 {
        fill: #fff;
      }

      .cls-6 {
        fill: url(#linear-gradient-17);
      }

      .cls-7 {
        fill: url(#linear-gradient-43);
      }

      .cls-8 {
        fill: url(#linear-gradient-15);
      }

      .cls-9 {
        fill: url(#linear-gradient-18);
      }

      .cls-10, .cls-4 {
        opacity: .6;
      }

      .cls-11 {
        fill: url(#linear-gradient-40);
      }

      .cls-12 {
        fill: url(#linear-gradient-28);
      }

      .cls-13 {
        fill: url(#linear-gradient-14);
      }

      .cls-14 {
        fill: url(#linear-gradient-36);
      }

      .cls-15 {
        fill: url(#linear-gradient-20);
      }

      .cls-16 {
        fill: url(#linear-gradient-6);
      }

      .cls-17 {
        isolation: isolate;
      }

      .cls-18 {
        fill: url(#linear-gradient-35);
      }

      .cls-19 {
        fill: url(#linear-gradient-32);
      }

      .cls-20 {
        fill: url(#linear-gradient-11);
      }

      .cls-21 {
        fill: url(#linear-gradient-39);
      }

      .cls-22 {
        fill: url(#linear-gradient-10);
      }

      .cls-23 {
        fill: #91b3fa;
      }

      .cls-3 {
        mix-blend-mode: soft-light;
      }

      .cls-24 {
        fill: url(#linear-gradient-37);
      }

      .cls-25 {
        fill: url(#linear-gradient-16);
      }

      .cls-26 {
        fill: url(#linear-gradient-31);
      }

      .cls-27 {
        fill: url(#linear-gradient-41);
      }

      .cls-28 {
        fill: url(#linear-gradient-21);
      }

      .cls-29 {
        fill: url(#linear-gradient-25);
      }

      .cls-30 {
        fill: url(#linear-gradient-5);
      }

      .cls-31 {
        fill: url(#linear-gradient-45);
      }

      .cls-32 {
        fill: url(#linear-gradient-34);
      }

      .cls-33 {
        fill: url(#linear-gradient-7);
      }

      .cls-34 {
        fill: url(#linear-gradient-24);
      }

      .cls-35 {
        fill: url(#linear-gradient-9);
      }

      .cls-36 {
        fill: url(#linear-gradient-22);
      }

      .cls-37 {
        fill: url(#linear-gradient-42);
      }

      .cls-38 {
        fill: url(#linear-gradient-3);
      }

      .cls-39 {
        fill: url(#linear-gradient);
      }

      .cls-5 {
        opacity: .78;
      }

      .cls-40 {
        fill: url(#linear-gradient-27);
      }

      .cls-41 {
        fill: url(#linear-gradient-33);
      }

      .cls-42 {
        fill: url(#linear-gradient-38);
      }

      .cls-43 {
        fill: url(#linear-gradient-29);
      }

      .cls-44 {
        fill: url(#linear-gradient-30);
      }

      .cls-45 {
        fill: #f16024;
      }

      .cls-46 {
        fill: #bdd0fb;
      }

      .cls-47 {
        fill: url(#linear-gradient-23);
      }

      .cls-48 {
        fill: url(#linear-gradient-19);
      }

      .cls-49 {
        fill: url(#linear-gradient-4);
      }

      .cls-50 {
        fill: url(#linear-gradient-8);
      }

      .cls-51 {
        fill: url(#linear-gradient-44);
      }

      .cls-52 {
        fill: url(#linear-gradient-12);
      }

      .cls-53 {
        fill: url(#linear-gradient-13);
      }

      .cls-54 {
        fill: url(#linear-gradient-26);
      }
    </style>
    <linearGradient id="linear-gradient" x1="3498.99" y1="3704.63" x2="1542.63" y2="1622.05" gradientUnits="userSpaceOnUse">
      <stop offset="0" stop-color="#dae3fe"/>
      <stop offset="1" stop-color="#e9effd"/>
    </linearGradient>
    <linearGradient id="linear-gradient-2" x1="1580.33" y1="2811.31" x2="1490.37" y2="148.45" gradientUnits="userSpaceOnUse">
      <stop offset="0" stop-color="#2b3582"/>
      <stop offset=".82" stop-color="#0f163a"/>
    </linearGradient>
    <linearGradient id="linear-gradient-3" x1="543.12" y1="2298.6" x2="1929.65" y2="3179.46" gradientUnits="userSpaceOnUse">
      <stop offset="0" stop-color="#ff928e"/>
      <stop offset="1" stop-color="#fe7062"/>
    </linearGradient>
    <linearGradient id="linear-gradient-4" x1="1349.63" y1="1577.51" x2="865.26" y2="2404.21" xlink:href="#linear-gradient-3"/>
    <linearGradient id="linear-gradient-5" x1="1438.3" y1="1629.46" x2="953.94" y2="2456.16" xlink:href="#linear-gradient-3"/>
    <linearGradient id="linear-gradient-6" x1="1615.65" y1="1733.37" x2="1131.29" y2="2560.07" xlink:href="#linear-gradient-3"/>
    <linearGradient id="linear-gradient-7" x1="1772.03" y1="285.58" x2="1160.2" y2="1090.43" gradientUnits="userSpaceOnUse">
      <stop offset="0" stop-color="#2b3582"/>
      <stop offset="1" stop-color="#150e42"/>
    </linearGradient>
    <linearGradient id="linear-gradient-8" x1="1839.15" y1="336.6" x2="1227.31" y2="1141.45" xlink:href="#linear-gradient-7"/>
    <linearGradient id="linear-gradient-9" x1="1334.87" y1="107.48" x2="1750.33" y2="1459.05" xlink:href="#linear-gradient-7"/>
    <linearGradient id="linear-gradient-10" x1="657.58" y1="1443.91" x2="1545.61" y2="2987.73" gradientUnits="userSpaceOnUse">
      <stop offset="0" stop-color="#090056"/>
      <stop offset="1" stop-color="#020039"/>
    </linearGradient>
    <linearGradient id="linear-gradient-11" x1="952.88" y1="4351.71" x2="1121.95" y2="2386.28" gradientUnits="userSpaceOnUse">
      <stop offset="0" stop-color="#3e30cb"/>
      <stop offset="1" stop-color="#1d129d"/>
    </linearGradient>
    <linearGradient id="linear-gradient-12" x1="612.05" y1="2919.27" x2="723.01" y2="4009.78" gradientTransform="translate(-927.96 -955.38) rotate(-14.47) scale(1 1.24)" gradientUnits="userSpaceOnUse">
      <stop offset="0" stop-color="#febbba"/>
      <stop offset="1" stop-color="#ff928e"/>
    </linearGradient>
    <linearGradient id="linear-gradient-13" x1="919.8" y1="2507.99" x2="1212.46" y2="2507.99" xlink:href="#linear-gradient-11"/>
    <linearGradient id="linear-gradient-14" x1="1287.05" y1="1816.31" x2="1422.15" y2="3144.08" gradientTransform="translate(437.12 255.9) rotate(9.26)" xlink:href="#linear-gradient-12"/>
    <linearGradient id="linear-gradient-15" x1="706.68" y1="2331.25" x2="1353.54" y2="4053.58" xlink:href="#linear-gradient-10"/>
    <linearGradient id="linear-gradient-16" x1="1050.9" y1="2201.97" x2="1697.76" y2="3924.3" xlink:href="#linear-gradient-10"/>
    <linearGradient id="linear-gradient-17" x1="802.74" y1="2851.45" x2="1277.49" y2="2851.45" xlink:href="#linear-gradient-10"/>
    <linearGradient id="linear-gradient-18" x1="589.88" y1="2609.97" x2="1306.31" y2="1887.19" gradientUnits="userSpaceOnUse">
      <stop offset="0" stop-color="#ff928e"/>
      <stop offset="1" stop-color="#f16024"/>
    </linearGradient>
    <linearGradient id="linear-gradient-19" x1="921.72" y1="1291.97" x2="1809.75" y2="2835.79" xlink:href="#linear-gradient-10"/>
    <linearGradient id="linear-gradient-20" x1="988.84" y1="1696.89" x2="1245.01" y2="2245.08" gradientTransform="matrix(1,0,0,1,0,0)" xlink:href="#linear-gradient-12"/>
    <linearGradient id="linear-gradient-21" x1="827.51" y1="1346.16" x2="1715.55" y2="2889.98" xlink:href="#linear-gradient-10"/>
    <linearGradient id="linear-gradient-22" x1="823" y1="1774.39" x2="1079.16" y2="2322.58" gradientTransform="matrix(1,0,0,1,0,0)" xlink:href="#linear-gradient-12"/>
    <linearGradient id="linear-gradient-23" x1="2585.76" y1="3581.21" x2="2564.73" y2="2119.2" gradientUnits="userSpaceOnUse">
      <stop offset="0" stop-color="#ff928e"/>
      <stop offset="1" stop-color="#f16024"/>
    </linearGradient>
    <linearGradient id="linear-gradient-24" x1="2947.79" y1="2723.51" x2="3128.25" y2="2723.51" xlink:href="#linear-gradient-10"/>
    <linearGradient id="linear-gradient-25" x1="2746.93" y1="2654.4" x2="3043.27" y2="2654.4" xlink:href="#linear-gradient-10"/>
    <linearGradient id="linear-gradient-26" x1="2044.39" y1="2637.12" x2="2546.07" y2="2637.12" xlink:href="#linear-gradient-10"/>
    <linearGradient id="linear-gradient-27" x1="1882.18" y1="2676" x2="2240.56" y2="2676" xlink:href="#linear-gradient-10"/>
    <linearGradient id="linear-gradient-28" x1="2646" y1="2261.16" x2="2654.64" y2="1909.12" gradientTransform="matrix(1,0,0,1,0,0)" xlink:href="#linear-gradient-12"/>
    <linearGradient id="linear-gradient-29" x1="2447.56" y1="2096.66" x2="2389.97" y2="3012.4" xlink:href="#linear-gradient-11"/>
    <linearGradient id="linear-gradient-30" x1="2872.01" y1="2123.54" x2="2814.44" y2="3038.94" xlink:href="#linear-gradient-11"/>
    <linearGradient id="linear-gradient-31" x1="2656.3" y1="2021.24" x2="2699.49" y2="1474.82" gradientTransform="matrix(1,0,0,1,0,0)" xlink:href="#linear-gradient-12"/>
    <linearGradient id="linear-gradient-32" x1="2809.14" y1="2033.32" x2="2852.34" y2="1486.9" gradientTransform="matrix(1,0,0,1,0,0)" xlink:href="#linear-gradient-12"/>
    <linearGradient id="linear-gradient-33" x1="2499.94" y1="2008.88" x2="2543.13" y2="1462.46" gradientTransform="matrix(1,0,0,1,0,0)" xlink:href="#linear-gradient-12"/>
    <linearGradient id="linear-gradient-34" x1="2668.09" y1="1503.07" x2="2727.69" y2="1964.11" xlink:href="#linear-gradient-10"/>
    <linearGradient id="linear-gradient-35" x1="1743.62" y1="2432.18" x2="1987.64" y2="2432.18" xlink:href="#linear-gradient-11"/>
    <linearGradient id="linear-gradient-36" x1="1405.38" y1="2887.62" x2="1608.06" y2="2887.62" xlink:href="#linear-gradient-11"/>
    <linearGradient id="linear-gradient-37" x1="2183.28" y1="2842.52" x2="2441.25" y2="2842.52" xlink:href="#linear-gradient-11"/>
    <linearGradient id="linear-gradient-38" x1="1854.01" y1="3104.97" x2="1880.44" y2="2273.84" gradientUnits="userSpaceOnUse">
      <stop offset="0" stop-color="#febbba"/>
      <stop offset="1" stop-color="#f16024"/>
    </linearGradient>
    <linearGradient id="linear-gradient-39" x1="1463.46" y1="2824.36" x2="1922.22" y2="2824.36" xlink:href="#linear-gradient-11"/>
    <linearGradient id="linear-gradient-40" x1="1865.11" y1="2810.8" x2="2285.88" y2="2810.8" xlink:href="#linear-gradient-11"/>
    <linearGradient id="linear-gradient-41" x1="1617.32" y1="1591.02" x2="2400.92" y2="2840.04" xlink:href="#linear-gradient-10"/>
    <linearGradient id="linear-gradient-42" x1="1800.87" y1="2362.88" x2="1866.95" y2="1709.43" gradientTransform="matrix(1,0,0,1,0,0)" xlink:href="#linear-gradient-12"/>
    <linearGradient id="linear-gradient-43" x1="1645.4" y1="2347.16" x2="1711.48" y2="1693.71" gradientTransform="matrix(1,0,0,1,0,0)" xlink:href="#linear-gradient-12"/>
    <linearGradient id="linear-gradient-44" x1="1965.88" y1="2379.57" x2="2031.95" y2="1726.11" gradientTransform="matrix(1,0,0,1,0,0)" xlink:href="#linear-gradient-12"/>
    <linearGradient id="linear-gradient-45" x1="1619.02" y1="1589.96" x2="2402.62" y2="2838.97" xlink:href="#linear-gradient-10"/>
  </defs>
  <g class="cls-17">
    <g id="Background">
      <rect class="cls-2" width="3710" height="3710"/>
    </g>
    <g id="Illustration">
      <g>
        <path class="cls-39" d="m2911.59,2869.11c-72.22,74.44-136.84,118.2-186.32,151.24-482.53,322.19-1034.11,229.33-1204.65,197.59-275.14-51.21-507.39-87.34-706.94-267.62-453.43-409.66-431.38-1264.24-84.9-1793.62,41.08-62.77,387.04-575.58,939.81-647.84,13.52-1.77,23.61-2.77,32.44-3.71,85.51-9.05,615.42-56.84,1047.51,305.16,61.85,51.82,161.39,145.29,253.69,287.84,337.5,521.24,338.57,1328.53-90.65,1770.96Z"/>
        <g>
          <path class="cls-46" d="m2789.51,741.09c4.54-14.01-11.8-25.52-23.6-16.72-119.89,89.41-414.78,364.45-410.43,904.17,5.46,677.16-161.38,905.06-351.46,1034.03,0,0,245.79-42.87,423.54-273.16,436.42-565.42,281.25-1399.2,361.96-1648.32Z"/>
          <path class="cls-3" d="m2683.36,940.33c-22,72.81-42.56,146.02-60.41,219.88-18.23,73.75-34.23,148.02-47.88,222.68-13.36,74.71-25.33,149.65-34.09,225-9.1,75.3-14.95,150.91-20.56,226.84-6.03,75.86-11.68,152.31-25.17,228.41-13.39,75.96-36.07,151.54-71.88,220.73-8.95,17.24-18.24,34.39-28.45,50.82-9.91,16.62-20.56,32.82-31.5,48.81-22.04,31.88-46.23,62.36-72.57,90.9-52.84,56.96-114.31,105.83-180.43,145.58-6.96,4.18-15.99,1.93-20.18-5.02-4.11-6.83-2.01-15.67,4.65-19.95l.05-.03c15.81-10.12,31.48-20.42,46.64-31.37,7.67-5.36,15.08-11.05,22.6-16.59,7.3-5.82,14.83-11.36,21.94-17.41,28.85-23.68,56-49.36,81.12-76.92,50.45-54.81,92.97-117.45,127.3-183.49,16.8-33.23,31.12-67.63,42.74-103.02,11.6-35.4,20.49-71.75,27.32-108.63,13.66-73.8,19.88-149.43,26.46-225.23,6.68-75.82,13.91-151.96,24.26-227.68,5.07-37.87,10.83-75.65,17.25-113.3,3.1-18.84,6.57-37.63,10.01-56.41,3.62-18.75,7.33-37.48,11.2-56.18,15.62-74.75,33.51-148.99,53.73-222.57,20.57-73.47,43.08-146.38,68.36-218.29.72-2.06,2.97-3.14,5.03-2.41,2,.7,3.07,2.86,2.47,4.86Z"/>
        </g>
        <g>
          <path class="cls-46" d="m2438.65,2909.44c4.71,26.73,35.18,39.96,58.11,25.45,126.54-80.04,463.87-338.72,524.93-852,51.57-433.45,120.72-663.58,159.36-765.88,8.17-21.63-16.03-41.12-35.44-28.57-214.25,138.48-877.52,652.58-706.96,1621Z"/>
          <path class="cls-3" d="m2474.81,2915.98c.49.46,1.03.88,1.62,1.26,4.94,3.14,11.49,1.68,14.62-3.26,3.56-5.6,356.91-566.7,455.84-1166.15.95-5.77-2.96-11.22-8.73-12.18-5.77-.95-11.23,2.96-12.18,8.73-98.21,595.08-449.28,1152.67-452.81,1158.23-2.77,4.35-1.96,9.95,1.64,13.37Z"/>
        </g>
        <g>
          <path class="cls-1" d="m719.63,903.49c0-86.39,70.03-156.42,156.42-156.42h1330.17c73.38,0,133.9,57.51,137.63,130.8l98.19,1928.5c2.92,57.35-42.23,105.73-99.64,106.77l-1524.54,27.71c-53.95.98-98.21-42.48-98.21-96.44V903.49Z"/>
          <path class="cls-38" d="m770.22,2467.37c-2.01,0-3.64-1.63-3.64-3.64v-41.71c0-2.01,1.63-3.64,3.64-3.64s3.64,1.63,3.64,3.64v41.71c0,2.01-1.63,3.64-3.64,3.64Z"/>
          <g>
            <path class="cls-23" d="m828.6,776.76c-.16-27.64,24.14-49.03,51.53-45.32,181.65,24.63,806.28,100.82,1322.72,61.17,23.55-1.81,43.99,16.04,45.24,39.62l102.95,1937.09c1.41,26.56-18.87,49.27-45.42,50.84-217.2,12.85-1111.72,62.54-1430.79,29.13-19.42-2.03-34.16-18.38-34.27-37.91l-11.97-2034.64Z"/>
            <path class="cls-4" d="m850,825.3c-.16-26.6,23.23-47.18,49.59-43.61,174.81,23.71,775.92,97.02,1272.91,58.87,22.66-1.74,42.33,15.43,43.54,38.13l99.08,1864.15c1.36,25.56-18.16,47.42-43.71,48.93-209.03,12.37-1069.86,60.19-1376.91,28.03-18.69-1.96-32.87-17.69-32.98-36.48l-11.52-1958.02Z"/>
            <path class="cls-5" d="m1011.82,969.02l18.57,399.66c.62,13.29,11.36,23.86,24.66,24.24,74.02,2.09,304.65,7.71,434.88.92,14.73-.77,26.38-12.69,26.87-27.43,2.48-74.95,7.92-293.1-9.16-384.29-2.76-14.73-15.42-25.52-30.4-26.05l-437.49-15.3c-15.78-.55-28.66,12.48-27.93,28.25Z"/>
            <circle class="cls-45" cx="1263.56" cy="1111.91" r="85.91" transform="translate(-55.96 2156.8) rotate(-79.72)"/>
            <path class="cls-45" d="m1133.06,1364.15h273.71c16.78,0,26.84-18.53,17.8-32.67-23.25-36.38-71.89-89.82-156.13-87.41-81.19,2.32-129.32,50.6-153.51,85.22-10.27,14.7.2,34.86,18.13,34.86Z"/>
            <g class="cls-10">
              <path class="cls-2" d="m2106.35,1003.81c8.57,0,15.41-6.03,15.19-13.41-.22-7.37-7.4-13.53-15.97-13.68l-479.74-8.55c-8.57-.15-13.25,6.34-10.41,14.42l2.3,6.52c2.85,8.09,12.19,14.7,20.76,14.7h467.87Z"/>
            </g>
            <g class="cls-10">
              <path class="cls-2" d="m1625.83,1042.68c-8.57-.15-13.25,6.34-10.41,14.42l2.3,6.52c2.85,8.09,12.19,14.7,20.76,14.7h467.87c8.57,0,15.41-6.03,15.19-13.41-.22-7.37-7.4-13.53-15.97-13.68l-479.74-8.55Z"/>
            </g>
            <g class="cls-10">
              <path class="cls-2" d="m1625.83,1118.27c-8.57-.15-13.25,6.34-10.41,14.42l2.3,6.52c2.85,8.09,12.19,14.7,20.76,14.7h467.87c8.57,0,15.41-6.03,15.19-13.41-.22-7.37-7.4-13.53-15.97-13.68l-479.74-8.55Z"/>
            </g>
            <g class="cls-10">
              <path class="cls-2" d="m2152.95,1518.43c8.57,0,15.19-6.03,14.7-13.41-.49-7.37-7.9-13.46-16.47-13.53l-1123.9-8.86c-8.57-.07-11.22,5.36-5.88,12.07l9.18,11.53c5.34,6.71,16.72,12.19,25.29,12.19h1097.07Z"/>
            </g>
            <g class="cls-10">
              <path class="cls-2" d="m1027.28,1557.14c-8.57-.07-11.22,5.36-5.88,12.07l9.18,11.53c5.34,6.71,16.72,12.19,25.29,12.19h1097.07c8.57,0,15.19-6.03,14.7-13.41-.49-7.37-7.9-13.46-16.47-13.53l-1123.9-8.86Z"/>
            </g>
            <path class="cls-45" d="m1022.2,1681.54c27.02-2.07,77.63-3.03,105.48-3.42,11.8-.16,22.16,7.83,24.92,19.31,5.38,22.29,12.79,60.99,11.86,101.99-.28,12.28-10.34,22.08-22.62,21.95l-102.8-1.11c-12.64-.14-23.14-9.8-24.31-22.39l-9.04-96.7c-.93-10,6.48-18.86,16.5-19.63Z"/>
            <g class="cls-10">
              <path class="cls-2" d="m1212.3,1721.25c-8.56-.36-14.53,6.28-13.26,14.76l2.49,16.58c1.27,8.48,9.33,15.41,17.9,15.41h249.66c8.57,0,15.5-7.01,15.39-15.58l-.05-4.22c-.11-8.57-7.2-15.88-15.77-16.24l-256.36-10.71Z"/>
            </g>
            <path class="cls-4" d="m1582.22,1681.54c27.02-2.07,77.63-3.03,105.48-3.42,11.8-.16,22.16,7.83,24.92,19.31,5.38,22.29,12.79,60.99,11.86,101.99-.28,12.28-10.34,22.08-22.62,21.95l-102.8-1.11c-12.64-.14-23.14-9.8-24.31-22.39l-9.04-96.7c-.93-10,6.48-18.86,16.5-19.63Z"/>
            <g class="cls-10">
              <path class="cls-2" d="m1772.32,1721.25c-8.56-.36-14.53,6.28-13.26,14.76l2.49,16.58c1.27,8.48,9.33,15.41,17.9,15.41h249.66c8.57,0,15.5-7.01,15.39-15.58l-.05-4.22c-.11-8.57-7.2-15.88-15.77-16.24l-256.36-10.71Z"/>
            </g>
            <g>
              <path class="cls-2" d="m1167.24,2065.22h-.26l-94.86-.91c-13.55-.13-24.74-9.46-26.02-21.69l-8.34-79.59c-.49-4.67.96-9.29,4.08-13.01,3.5-4.16,8.79-6.77,14.51-7.16h0c7.99-.54,19.25-1.5,31.16-2.52,25.09-2.14,56.31-4.79,73.88-5.01,12.75-.06,23.56,7.48,26.56,18.58,4.94,18.27,4.51,52.85,3.57,89.69-.3,11.97-11.18,21.61-24.29,21.61Zm-110.38-115.08c-3.77.26-7.21,1.93-9.44,4.58-1.84,2.19-2.7,4.87-2.42,7.56l8.34,79.59c.9,8.55,9,15.07,18.85,15.16l94.86.91h.19c9.19,0,16.8-6.48,17.01-14.51.93-36.28,1.37-70.28-3.32-87.61-2.1-7.76-10.18-13.17-19.44-13.19-17.31.22-48.38,2.86-73.35,4.99-11.95,1.02-23.23,1.98-31.28,2.53h0Z"/>
              <path class="cls-4" d="m1067.07,1958.35c19.93-1.36,63.24-5.76,83.78-6.01,8.7-.11,16.34,5.15,18.38,12.7,3.96,14.66,3.44,43.88,2.75,70.84-.21,8.08-7.62,14.52-16.68,14.44l-75.8-.73c-9.32-.09-17.06-6.45-17.93-14.72l-6.66-63.6c-.69-6.58,4.78-12.4,12.17-12.91Z"/>
              <g class="cls-10">
                <path class="cls-2" d="m1250.56,2012.37c2.75,10.41,12.21,17.64,22.97,17.55l877.65-7.48c9.93-.08,17.87-8.27,17.65-18.2-.21-9.65-8.07-17.38-17.72-17.42l-877.67-4c-15.49-.07-26.83,14.58-22.88,29.56Z"/>
              </g>
              <path class="cls-49" d="m1071.11,1970.83h0c7.04-4.13,16.1-1.67,20.08,5.46l18.71,33.54c1.87,3.36,6.77,3.14,8.35-.36l46.4-103.31c2.31-5.15,9.99-3.41,9.91,2.24-.47,31.6-8.86,91.67-59.35,141.95,0,0-27.83-10.82-50.23-60.02-3.24-7.11-.6-15.54,6.14-19.49Z"/>
              <path class="cls-2" d="m1167.24,2268.52h-.26l-94.86-.91c-13.55-.13-24.74-9.46-26.02-21.69l-8.34-79.59c-.49-4.67.96-9.29,4.08-13.01,3.5-4.16,8.79-6.77,14.51-7.16h0c7.99-.54,19.25-1.5,31.16-2.52,25.09-2.14,56.31-4.79,73.88-5.01.13,0,.26,0,.38,0,12.47,0,23.21,7.6,26.18,18.58,4.94,18.27,4.51,52.85,3.57,89.69-.3,11.97-11.18,21.61-24.29,21.61Zm-110.38-115.08c-3.77.26-7.21,1.93-9.44,4.58-1.84,2.19-2.7,4.87-2.42,7.56l8.34,79.59c.9,8.55,9,15.07,18.85,15.17l94.86.91h.19c9.19,0,16.8-6.48,17.01-14.51.93-36.28,1.37-70.28-3.32-87.61-2.1-7.76-10.29-13.34-19.44-13.19-17.3.22-48.38,2.86-73.35,4.99-11.95,1.02-23.23,1.98-31.28,2.53h0Z"/>
              <path class="cls-4" d="m1067.07,2161.65c19.93-1.36,63.24-5.76,83.78-6.02,8.7-.11,16.34,5.15,18.38,12.7,3.96,14.66,3.44,43.88,2.75,70.84-.21,8.08-7.62,14.52-16.68,14.44l-75.8-.73c-9.32-.09-17.06-6.44-17.93-14.72l-6.66-63.6c-.69-6.58,4.78-12.41,12.17-12.91Z"/>
              <g class="cls-10">
                <path class="cls-2" d="m1250.56,2215.67c2.75,10.41,12.21,17.64,22.97,17.55l877.65-7.48c9.93-.08,17.87-8.27,17.65-18.2-.21-9.65-8.07-17.38-17.72-17.42l-877.67-4c-15.49-.07-26.83,14.58-22.88,29.56Z"/>
              </g>
              <path class="cls-30" d="m1071.11,2174.13h0c7.04-4.13,16.1-1.67,20.08,5.46l18.71,33.54c1.87,3.36,6.77,3.15,8.35-.36l46.4-103.31c2.31-5.15,9.99-3.41,9.91,2.24-.47,31.6-8.86,91.67-59.35,141.95,0,0-27.83-10.82-50.23-60.02-3.24-7.11-.6-15.54,6.14-19.49Z"/>
              <path class="cls-2" d="m1167.24,2471.82h-.26l-94.86-.91c-13.55-.13-24.74-9.45-26.02-21.68l-8.34-79.59c-.49-4.67.96-9.29,4.09-13.01,3.5-4.16,8.78-6.77,14.51-7.16h0c7.99-.54,19.25-1.5,31.16-2.52,25.09-2.14,56.31-4.79,73.88-5.01.13,0,.26,0,.38,0,12.47,0,23.21,7.6,26.18,18.58,4.94,18.27,4.51,52.85,3.57,89.7-.3,11.97-11.18,21.61-24.29,21.61Zm-110.38-115.08c-3.77.26-7.21,1.93-9.44,4.58-1.84,2.19-2.7,4.87-2.42,7.56l8.34,79.59c.9,8.55,9,15.07,18.85,15.16l94.86.91h.19c9.19,0,16.8-6.48,17.01-14.51.93-36.28,1.37-70.28-3.32-87.61-2.1-7.76-10.29-13.37-19.44-13.19-17.3.22-48.38,2.86-73.35,4.99-11.95,1.02-23.23,1.98-31.28,2.53h0Z"/>
              <path class="cls-4" d="m1067.07,2364.95c19.93-1.36,63.24-5.76,83.78-6.02,8.7-.11,16.34,5.15,18.38,12.7,3.96,14.66,3.44,43.88,2.75,70.84-.21,8.08-7.62,14.52-16.68,14.44l-75.8-.73c-9.32-.09-17.06-6.45-17.93-14.72l-6.66-63.6c-.69-6.58,4.78-12.4,12.17-12.91Z"/>
              <g class="cls-10">
                <path class="cls-2" d="m1250.56,2418.97c2.75,10.41,12.21,17.64,22.97,17.55l877.65-7.48c9.93-.08,17.87-8.27,17.65-18.2-.21-9.65-8.07-17.38-17.72-17.42l-877.67-4c-15.49-.07-26.83,14.58-22.88,29.56Z"/>
              </g>
              <path class="cls-2" d="m1167.24,2675.12h-.26l-94.86-.91c-13.55-.13-24.74-9.45-26.02-21.68l-8.34-79.59c-.49-4.67.96-9.29,4.09-13.01,3.5-4.16,8.78-6.77,14.51-7.16h0c7.99-.54,19.25-1.5,31.16-2.52,25.09-2.14,56.31-4.79,73.88-5.01.13,0,.26,0,.38,0,12.47,0,23.21,7.6,26.18,18.58,4.94,18.27,4.51,52.85,3.57,89.69-.3,11.97-11.18,21.61-24.29,21.61Zm-110.38-115.08c-3.77.26-7.21,1.93-9.44,4.58-1.84,2.19-2.7,4.87-2.42,7.56l8.34,79.59c.9,8.55,9,15.07,18.85,15.16l94.86.91h.19c9.19,0,16.8-6.48,17.01-14.51.93-36.28,1.37-70.28-3.32-87.61-2.1-7.76-10.29-13.39-19.44-13.19-17.3.22-48.38,2.86-73.35,4.99-11.95,1.02-23.23,1.98-31.28,2.53h0Z"/>
              <path class="cls-4" d="m1067.07,2568.25c19.93-1.36,63.24-5.76,83.78-6.02,8.7-.11,16.34,5.15,18.38,12.7,3.96,14.66,3.44,43.88,2.75,70.84-.21,8.08-7.62,14.52-16.68,14.44l-75.8-.73c-9.32-.09-17.06-6.45-17.93-14.72l-6.66-63.6c-.69-6.58,4.78-12.4,12.17-12.91Z"/>
              <g class="cls-10">
                <path class="cls-2" d="m1250.56,2622.27h0c2.75,10.41,12.21,17.64,22.97,17.55l877.65-7.48c9.93-.08,17.87-8.27,17.65-18.2-.21-9.65-8.07-17.38-17.72-17.42l-877.67-4c-15.49-.07-26.83,14.58-22.88,29.56Z"/>
              </g>
              <path class="cls-16" d="m1071.11,2580.73h0c7.04-4.13,16.1-1.67,20.08,5.46l18.71,33.54c1.87,3.36,6.77,3.14,8.35-.36l46.4-103.31c2.31-5.15,9.99-3.41,9.91,2.24-.47,31.6-8.86,91.67-59.35,141.95,0,0-27.83-10.82-50.23-60.02-3.24-7.11-.6-15.54,6.14-19.49Z"/>
            </g>
          </g>
          <path class="cls-33" d="m1623.63,484.13c-48.05-33.43-89.83-32.76-119.24-24.09-26.83,7.92-44.22,33.82-41.66,61.67l12.68,138.44,150.92,13.39s91.52-123.86-2.71-189.42Zm-66.37,111.68c-20.78,0-37.63-16.85-37.63-37.63s16.85-37.63,37.63-37.63,37.63,16.85,37.63,37.63-16.85,37.63-37.63,37.63Z"/>
          <path class="cls-2" d="m1490.49,601.92c-1.86,0-3.45-1.42-3.62-3.31l-2.02-22.05c-.18-2,1.29-3.77,3.29-3.96,2.04-.19,3.78,1.29,3.96,3.3l2.02,22.05c.19,2-1.29,3.77-3.29,3.96-.11.01-.23.01-.34.01Zm-3.96-43.2c-1.86,0-3.45-1.42-3.62-3.31l-1.53-16.74c-2.43-26.54,14.27-51.24,39.7-58.75,18.01-5.32,36.57-6.08,55.16-2.27,1.97.4,3.24,2.33,2.84,4.3-.4,1.97-2.31,3.23-4.3,2.83-17.41-3.56-34.78-2.86-51.64,2.12-22.11,6.53-36.62,28.02-34.51,51.1l1.53,16.74c.19,2-1.29,3.77-3.29,3.96-.11.01-.23.01-.34.01Z"/>
          <path class="cls-50" d="m1269.43,749.62v-69.6c0-24.03,19.91-43.27,43.93-42.45l479.87,16.44c21.3.73,38.54,17.54,39.82,38.81l4.01,66.88-567.62-10.08Z"/>
          <path class="cls-2" d="m1448.36,663.8h-20.64c-2.01,0-3.64-1.63-3.64-3.64s1.63-3.64,3.64-3.64h20.64c2.01,0,3.64,1.63,3.64,3.64s-1.63,3.64-3.64,3.64Z"/>
          <path class="cls-2" d="m1295.4,727.77c-2.01,0-3.64-1.63-3.64-3.64v-28.16c0-21.76,17.7-39.45,39.45-39.45h75.87c2.01,0,3.64,1.63,3.64,3.64s-1.63,3.64-3.64,3.64h-75.87c-17.74,0-32.17,14.43-32.17,32.17v28.16c0,2.01-1.63,3.64-3.64,3.64Z"/>
          <path class="cls-35" d="m1073.9,767.2c1.16-24.1,21.04-43.05,45.17-43.05l839.14-.02c30.17,0,55.97,21.71,61.12,51.44l.71,4.1c5.64,32.57-19.43,62.35-52.48,62.35h-860.91c-19.78,0-35.54-16.54-34.59-36.29l1.85-38.53Z"/>
        </g>
        <g>
          <g>
            <path class="cls-22" d="m828.75,1613.77s-13.01,78.04-65.03,39.02c-52.03-39.02-117.06-97.55-182.1-39.02-65.03,58.53,19.51,97.55,19.51,97.55,0,0-32.41-13.89-54.26,13.02-6.28,7.73-17.01,9.81-25.48,4.56-7.98-4.96-18.7-7.17-30.83,1.93-9.54,7.16-33.02,72.08,0,182.09,19.67,65.52,76.73,254.22,229.76,280.36,99.92,17.07,179.98-45.56,187-51.23,78.51-63.38,88.19-152.81,89.66-169.07-5.81-17.41-33.67-106.49,13.85-183.62,10.8-17.54,42.67-63.08,95.82-74.77,11.43-2.51,23.63-1.05,40.75,3.23,0,0,19.51,78.04,71.54,71.54,0,0-6.5-19.51,13.01-32.52,18.7-12.47,61.29-72.71-21.06-117.78-6.54-3.58-10.31-10.62-10.15-18.07.5-24.04-8.61-78.37-92.36-117.79-106.43-50.09-176.7-33.87-210.81,25.43-2.47,4.3-6.62,7.38-11.39,8.73-16.05,4.55-52.4,20.91-57.45,76.4Z"/>
            <path class="cls-20" d="m1316.41,3251.98c-13.24-91.79-84.45-389.56-84.45-389.56,0,0-279.65,97.55-390.21-32.52,0,0-31.35,183.1-63.21,422.08h537.87Z"/>
            <path class="cls-52" d="m780.01,3251.98h64.37l14.17-51.2s-167.42-88.15-147.6-311.68c18.89-213.07,93.7-365.63,93.7-365.63l-105.37-268.85s-199.66,414.2-131.15,679.66c53.49,207.25,136.3,290.19,211.87,317.69Z"/>
            <polygon class="cls-53" points="919.8 2147.05 1212.46 2147.05 1108.4 2868.93 965.33 2868.93 919.8 2147.05"/>
            <path class="cls-13" d="m1428.21,2221.78s158.57,401.29,70.56,698.44c-88.01,297.16-249.68,318.71-249.68,318.71l-29.63-60.75s276.69-282.35,83.41-713.26l125.33-243.14Z"/>
            <path class="cls-8" d="m659.67,3148.58c-3.84,25.92,3.8,52.22,20.91,72.06,17.11,19.85,42.02,31.34,68.22,31.34h249.65c-3.17-94.22-5.72-165.45-7.1-194.46-6.5-136.57,0-942.99,0-942.99l-274.67,119.42c-14.41,6.27-22.76,21.49-20.29,37.02l41.33,259.78,78.04,286.15s-130.07,156.08-156.08,331.67c0,0,0,0,0,0Z"/>
            <path class="cls-25" d="m1367.3,3251.98c-26.11-140.15-46.66-247.09-50.79-259.49-13.01-39.02-52.03-136.57-52.03-136.57l169.09-637.33-6.5-13.01-247.13-84.54-130.07,767.4,18.95,363.54h298.48Z"/>
            <path class="cls-6" d="m809.24,2784.39l-6.5,52.03s149.58,144.92,474.75,49.7l-6.5-56.2s-370.69,0-461.74-45.52Z"/>
            <path class="cls-9" d="m854.77,2069.01s-13.01-71.54,182.1-71.54,253.63,45.52,240.63,97.55c0,0,39.02,19.51,19.51,84.54-19.51,65.03-299.16,201.61-390.21,331.67-91.05,130.07-253.63-357.69-52.03-442.23Z"/>
            <path class="cls-45" d="m900.29,2069.01c32.52,52.03,234.12,84.54,299.16,45.52,39.84-23.91,60.11-50.26,53.42-77.55-33.4-23.67-100.93-39.51-216-39.51-74.94,0-119.1,10.56-145.17,23.57-3.83,13.06-3.11,29.25,8.6,47.97Z"/>
            <path class="cls-48" d="m1231.97,1730.83s39.02,0,45.52,58.53c6.5,58.53-65.03,84.54-65.03,84.54l-39.02-6.5,19.51-123.57,39.02-13.01Z"/>
            <path class="cls-15" d="m874.28,1860.9s39.02,195.1,156.08,221.12c117.06,26.01,156.08-156.08,162.59-169.09,0,0,26.01,13.01,32.52-13.01,6.5-26.01,39.02-91.05-19.51-91.05,0,0,13.01-65.03-6.5-97.55-19.51-32.52-58.53-110.56-143.08-91.05-84.54,19.51-182.09,143.07-182.09,240.63Z"/>
            <path class="cls-28" d="m1210.91,1639.07c-6.54-3.58-10.31-10.62-10.15-18.07.5-24.04-8.61-78.37-92.36-117.79-106.43-50.09-176.7-33.87-210.81,25.43-2.47,4.3-6.62,7.38-11.39,8.73-16.05,4.55-52.4,20.91-57.45,76.4,0,0-5.9,35.22-25.55,46.49,48.18,38.65,71.65,176.74,72.64,178.57,14.94,3.35,69.91,10.2,135.01-49.47,78.04-71.54,84.54-84.55,136.57-71.54,0,0,19.51,78.04,71.54,71.54,0,0-6.5-19.51,13.01-32.52,18.7-12.47,61.29-72.71-21.06-117.78Z"/>
            <path class="cls-36" d="m887.28,1867.4s0-39.02-32.52-32.52c-32.52,6.5,6.83,101.42,35.93,83.23l-3.42-50.71Z"/>
          </g>
          <g>
            <path class="cls-47" d="m2923.42,3251.98c-2.09-365.31-18.83-1113.1-18.83-1113.1-112.31-69.11-526.98-60.47-526.98-60.47,0,0-100.15,830.64-139.91,1173.57h685.72Z"/>
            <path class="cls-34" d="m3005.73,3251.98c51.25,0,93.81-39.07,98.33-90.12,4.55-51.35,10.53-105.21,16.51-159.08,14.6-131.41,4.53-571.26,1.05-704.43-.64-24.41-12.09-47.24-31.25-62.37l-51.87-40.95-68.3,1056.95h35.52Z"/>
            <path class="cls-29" d="m2778.84,3251.98h214.56c7.09-123.56,14.44-250.11,19.19-288.07,8.64-69.11,43.19-751.6,25.92-768.87-17.28-17.28-215.98-138.22-215.98-138.22,0,0-60.47,492.43-69.11,544.26-8.64,51.83-8.64,259.17,0,345.56,3.34,33.43,13.15,157.4,25.43,305.35Z"/>
            <path class="cls-54" d="m2123.69,3251.98h331.44c5.06-34.66,9.56-65.1,13.2-89.37,25.92-172.78,77.75-501.06,77.75-578.82s-43.2-561.54-43.2-561.54l-311,77.75s25.92,293.73,25.92,380.12-51.83,501.06-69.11,622.01c-3.96,27.71-13.37,82.22-24.99,149.85Z"/>
            <path class="cls-40" d="m1892.64,3251.98h217.17v-119.61c0-60.47,129.59-414.67,129.59-457.87s12.96-505.38-47.51-574.5c0,0-73.43,142.54-133.91,341.24-60.47,198.7-86.39,267.81-129.59,406.03-43.2,138.22-51.83,207.34-43.2,293.73,2.56,25.58,5.12,66.32,7.45,110.97Z"/>
            <path class="cls-12" d="m2515.84,2095.69l51.83-181.42h190.06l25.92,207.34s-164.14,43.2-267.81-25.92Z"/>
            <path class="cls-43" d="m2325.78,2052.5s190.06-60.47,215.98-60.47-8.64,43.19-8.64,69.11,8.64,431.95,8.64,518.34c0,0-181.42-276.45-215.98-311s129.59-120.95,129.59-120.95l-129.59-95.03Z"/>
            <path class="cls-44" d="m2766.37,1992.02c-16.76,4.19,8.64,259.17,0,311-8.64,51.83-17.28,319.64-17.28,319.64,0,0,215.98-276.45,224.62-311,8.64-34.56,17.28-69.11-34.56-77.75-51.83-8.64-120.95-34.56-120.95-34.56l116.63-90.71s-133.9-125.27-168.46-116.63Z"/>
            <path class="cls-26" d="m2526.17,1678.97s7.53,173.19,37.65,240.96c30.12,67.77,105.42,67.77,112.95,67.77s75.3-15.06,112.95-75.3c37.65-60.24,52.71-256.02,52.71-256.02,0,0-67.77-75.3-158.13-82.83-90.36-7.53-158.13,67.77-158.13,105.42Z"/>
            <path class="cls-19" d="m2809.57,1741.49s34.56-51.83,51.83-34.56c17.28,17.28-17.28,129.59-51.83,129.59s0-95.03,0-95.03Z"/>
            <path class="cls-41" d="m2550.4,1750.13s-43.2-60.47-60.47-43.19c-17.28,17.28,25.92,129.59,60.47,129.59v-86.39Z"/>
            <path class="cls-32" d="m2895.96,1637.82c-17.28-51.83,17.28-60.47-17.28-112.31-34.56-51.83-103.67-112.31-155.5-77.75-51.83,34.56-86.39,51.83-112.31,25.92-25.92-25.92-86.39-34.56-129.59,25.92-43.19,60.47-17.28,95.03,0,120.95,17.28,25.92,25.92,34.56,8.64,51.83-17.28,17.28,34.9,48.73,43.37,97.8,8.46,49.07-8.81-89.16-8.81-89.16,0,0,17.28-77.75,95.03-77.75s86.39,0,129.59,25.92c21.01,12.61,42.53,30.49,59.14,45.55,7.58,36.94,14.54,82.56,9.98,109.95h11.9l8.12-75.02c9.13-1.92,73.79-23.68,57.74-71.85Z"/>
          </g>
          <g>
            <path class="cls-18" d="m1833.28,2362.77s112.41-28.97,136.29,6.85c11.94,59.55,18.08,118.71,18.08,118.71l-129.53,24.32-85.66-19.72-20.38-11.83-8.45-84.37s43.81-25.41,89.65-33.96Z"/>
            <path class="cls-14" d="m1547.32,3251.98c34.88-295.48,60.74-493.75,60.74-493.75l-144.6-234.98s-18.08,72.3-36.15,262.09c-13.87,145.64-17.1,333.86-21.93,466.64h141.94Z"/>
            <path class="cls-24" d="m2326.4,3251.98h114.53c2.35-89-9.17-156.85-9.17-156.85-4.22-282.45-134.96-652.08-142.91-662.09l-105.58,288.14s144.83,325.75,145.4,480.45c.06,16.45-.78,33.33-2.28,50.34Z"/>
            <path class="cls-42" d="m1858.76,3251.98h69.8l77.15-810.06s-36.15-9.04-54.22-72.3c-18.08-63.26-27.11-189.79-27.11-189.79l-162.68,36.15s18.08,171.71-18.08,253.05l115.14,782.95Z"/>
            <path class="cls-21" d="m1623.33,3251.98h298.89c-1.98-10.83-4.25-21.76-6.88-32.84-45.19-189.79-171.71-822.42-171.71-822.42l-27.11,54.23-253.05,72.3c22.07,102.99,127.97,499.4,166.61,643.31,7.65,28.49,5.44,58.76-6.74,85.42Z"/>
            <path class="cls-11" d="m2177.72,3251.98c-4.85-27.38-8.16-48.23-9.33-59.95-9.04-90.38,62.78-430.14,62.78-430.14l54.71-329.01c-17.22-17.22-41.07-26.12-65.36-24.38l-214.81,15.34-36.15-54.23s-82.06,594.79-104.45,882.36h312.61Z"/>
            <path class="cls-27" d="m1716.51,2098.49s-108.45,27.11-108.45-81.34c0,0-99.41-72.3-45.19-171.71,54.23-99.41,108.45-45.19,108.45-45.19,0,0-54.23-117.49,45.19-117.49,0,0,63.26-27.11,45.19-54.23s-45.19-63.26,0-90.38c45.19-27.11,72.3,45.19,72.3,72.3s-9.04-27.11,45.19-18.08c54.23,9.04,54.23,27.11,45.19,72.3-9.04,45.19,108.45,0,99.41,180.75,0,0,36.15,0,45.19,54.22,0,0,72.3,198.83-99.41,198.83h-253.05Z"/>
            <path class="cls-37" d="m1680.36,1935.82s-9.04,216.9,18.08,253.05c27.11,36.15,63.26,117.49,126.53,126.53,63.26,9.04,162.68-171.71,162.68-180.75s-9.04-244.01-9.04-244.01c0,0-189.79-153.64-298.24,45.19Z"/>
            <path class="cls-7" d="m1698.44,2062.34s-18.08-54.23-45.19-36.15c-27.11,18.08,40.69,133.43,40.69,133.43l4.5-97.28Z"/>
            <path class="cls-51" d="m1969.56,2062.34s0-81.34,45.19-36.15c45.19,45.19-45.19,108.45-45.19,108.45v-72.3Z"/>
            <path class="cls-31" d="m1644.21,1899.67s-36.15,108.45,72.3,72.3l108.45-36.15s108.45-63.26,126.53-36.15c18.07,27.11,36.15,93.88,36.15,93.88,0,0,36.15-93.88,0-148.11-36.15-54.23-262.09-99.41-343.43,54.22Z"/>
          </g>
        </g>
      </g>
    </g>
  </g>
</svg>